<?xml version="1.0" encoding="UTF-8"?>
<svg xmlns="http://www.w3.org/2000/svg" xmlns:xlink="http://www.w3.org/1999/xlink" width="256pt" height="256pt" viewBox="0 0 256 256" version="1.1">
<g id="surface1">
<path style=" stroke:none;fill-rule:nonzero;fill:rgb(0%,0%,0%);fill-opacity:1;" d="M 232 128 L 192 128 L 192 96 C 192 78.351562 206.351562 64 224 64 L 228 64 C 234.648438 64 240 58.648438 240 52 L 240 28 C 240 21.351562 234.648438 16 228 16 L 224 16 C 179.800781 16 144 51.800781 144 96 L 144 216 C 144 229.25 154.75 240 168 240 L 232 240 C 245.25 240 256 229.25 256 216 L 256 152 C 256 138.75 245.25 128 232 128 Z M 88 128 L 48 128 L 48 96 C 48 78.351562 62.351562 64 80 64 L 84 64 C 90.648438 64 96 58.648438 96 52 L 96 28 C 96 21.351562 90.648438 16 84 16 L 80 16 C 35.800781 16 0 51.800781 0 96 L 0 216 C 0 229.25 10.75 240 24 240 L 88 240 C 101.25 240 112 229.25 112 216 L 112 152 C 112 138.75 101.25 128 88 128 Z M 88 128 "/>
</g>
</svg>
