<?xml version="1.0" encoding="UTF-8"?>
<svg xmlns="http://www.w3.org/2000/svg" xmlns:xlink="http://www.w3.org/1999/xlink" width="256pt" height="256pt" viewBox="0 0 256 256" version="1.1">
<g id="surface1">
<path style=" stroke:none;fill-rule:nonzero;fill:rgb(0%,0%,0%);fill-opacity:1;" d="M 232 16 L 168 16 C 154.75 16 144 26.75 144 40 L 144 104 C 144 117.25 154.75 128 168 128 L 208 128 L 208 160 C 208 177.648438 193.648438 192 176 192 L 172 192 C 165.351562 192 160 197.351562 160 204 L 160 228 C 160 234.648438 165.351562 240 172 240 L 176 240 C 220.199219 240 256 204.199219 256 160 L 256 40 C 256 26.75 245.25 16 232 16 Z M 88 16 L 24 16 C 10.75 16 0 26.75 0 40 L 0 104 C 0 117.25 10.75 128 24 128 L 64 128 L 64 160 C 64 177.648438 49.648438 192 32 192 L 28 192 C 21.351562 192 16 197.351562 16 204 L 16 228 C 16 234.648438 21.351562 240 28 240 L 32 240 C 76.199219 240 112 204.199219 112 160 L 112 40 C 112 26.75 101.25 16 88 16 Z M 88 16 "/>
</g>
</svg>
